<svg xmlns="http://www.w3.org/2000/svg" viewBox="0 0 651.38 53.79" fill="currentColor">
  <path
    d="M.06,21.66c24.13-6.24,28.67,16.62,71.35,16.56,20.45-.03,44.24-30.12,60.54-15.35,21.33,19.33,32.44,24.67,56,24.67s33.68-22.65,61.24-22.65,36.44,16,52.44,16,19.77-13.74,37.55-13.74,27.79,6.63,60.23,6.63c28.65,0,27.53-10.22,56.18-10.22,9,0,41.84-5.39,47.05,1.53,2.29,3.04,6.98,9.46,12.56,2.3,7.44-9.53,31.37-3.37,47.89-2.11s31.9,4.73,40.04,5.83,10.18-2.99,9.72-5.1c-.57-2.6-4.9-7.1-17.9-3.45s-29.37-15.75,3.65-11.82,46.35,3.93,52.78-10.74c0,17.96,0,36.48,0,53.79-7.83-.07-651.38-.01-651.38-.01,0,0,0-20.65.06-32.11Z" />
</svg>